name rise32.9588peak41.5061fall63.4684.mot
datacolumns 19
datarows 15
range 9.53163600000000 9.55496700000000
endheader
time	ground_force1_vx	ground_force1_vy	ground_force1_vz	ground_force1_px	ground_force1_py	ground_force1_pz	ground_force2_vx	ground_force2_vy	ground_force2_vz	ground_force2_px	ground_force2_py	ground_force2_pz	ground_torque1_x	ground_torque1_y	ground_torque1_z	ground_torque2_x	ground_torque2_y	ground_torque2_z	
9.53163600000000	9.27137300000000	704.73245499999996	48.69538400000000	0.19314200000000	0.00000000000000	0.12358200000000	0.00000000000000	0.00000000000000	0.00000000000000	0.00000000000000	0.00000000000000	0.00000000000000	0.00000000000000	16.97241600000000	0.00000000000000	0.00000000000000	0.00000000000000	0.00000000000000	
9.53329800000000	8.87737300000000	705.01433099999997	48.68849300000000	0.19229800000000	0.00000000000000	0.12352900000000	0.00000000000000	0.00000000000000	0.00000000000000	0.00000000000000	0.00000000000000	0.00000000000000	0.00000000000000	17.00946000000000	0.00000000000000	0.00000000000000	0.00000000000000	0.00000000000000	
9.53496500000000	8.47351100000000	705.34530400000006	48.68611000000000	0.19143800000000	0.00000000000000	0.12347600000000	0.00000000000000	0.00000000000000	0.00000000000000	0.00000000000000	0.00000000000000	0.00000000000000	0.00000000000000	17.05063700000000	0.00000000000000	0.00000000000000	0.00000000000000	0.00000000000000	
9.53663000000000	8.05952100000000	705.72503900000004	48.68813500000000	0.19056100000000	0.00000000000000	0.12342000000000	0.00000000000000	0.00000000000000	0.00000000000000	0.00000000000000	0.00000000000000	0.00000000000000	0.00000000000000	17.09590500000000	0.00000000000000	0.00000000000000	0.00000000000000	0.00000000000000	
9.53829500000000	7.63517900000000	706.15322100000003	48.69446100000000	0.18966700000000	0.00000000000000	0.12336300000000	0.00000000000000	0.00000000000000	0.00000000000000	0.00000000000000	0.00000000000000	0.00000000000000	0.00000000000000	17.14521200000000	0.00000000000000	0.00000000000000	0.00000000000000	0.00000000000000	
9.53996900000000	7.20030800000000	706.62955699999998	48.70498200000000	0.18875600000000	0.00000000000000	0.12330400000000	0.00000000000000	0.00000000000000	0.00000000000000	0.00000000000000	0.00000000000000	0.00000000000000	0.00000000000000	17.19850200000000	0.00000000000000	0.00000000000000	0.00000000000000	0.00000000000000	
9.54163500000000	6.75477500000000	707.15377599999999	48.71958800000000	0.18782700000000	0.00000000000000	0.12324400000000	0.00000000000000	0.00000000000000	0.00000000000000	0.00000000000000	0.00000000000000	0.00000000000000	0.00000000000000	17.25571200000000	0.00000000000000	0.00000000000000	0.00000000000000	0.00000000000000	
9.54330600000000	6.29849600000000	707.72563600000001	48.73816500000000	0.18688100000000	0.00000000000000	0.12318100000000	0.00000000000000	0.00000000000000	0.00000000000000	0.00000000000000	0.00000000000000	0.00000000000000	0.00000000000000	17.31677400000000	0.00000000000000	0.00000000000000	0.00000000000000	0.00000000000000	
9.54496500000000	5.83143200000000	708.34492200000000	48.76060100000000	0.18591900000000	0.00000000000000	0.12311700000000	0.00000000000000	0.00000000000000	0.00000000000000	0.00000000000000	0.00000000000000	0.00000000000000	0.00000000000000	17.38161200000000	0.00000000000000	0.00000000000000	0.00000000000000	0.00000000000000	
9.54662800000000	5.35359100000000	709.01145299999996	48.78678200000000	0.18494000000000	0.00000000000000	0.12305100000000	0.00000000000000	0.00000000000000	0.00000000000000	0.00000000000000	0.00000000000000	0.00000000000000	0.00000000000000	17.45014500000000	0.00000000000000	0.00000000000000	0.00000000000000	0.00000000000000	
9.54829700000000	4.86502800000000	709.72507700000006	48.81659500000000	0.18394400000000	0.00000000000000	0.12298200000000	0.00000000000000	0.00000000000000	0.00000000000000	0.00000000000000	0.00000000000000	0.00000000000000	0.00000000000000	17.52228500000000	0.00000000000000	0.00000000000000	0.00000000000000	0.00000000000000	
9.54996200000000	4.36584400000000	710.48567700000001	48.84992700000000	0.18293400000000	0.00000000000000	0.12291100000000	0.00000000000000	0.00000000000000	0.00000000000000	0.00000000000000	0.00000000000000	0.00000000000000	0.00000000000000	17.59793700000000	0.00000000000000	0.00000000000000	0.00000000000000	0.00000000000000	
9.55163400000000	3.85618800000000	711.29316700000004	48.88666800000000	0.18190800000000	0.00000000000000	0.12283800000000	0.00000000000000	0.00000000000000	0.00000000000000	0.00000000000000	0.00000000000000	0.00000000000000	0.00000000000000	17.67700200000000	0.00000000000000	0.00000000000000	0.00000000000000	0.00000000000000	
9.55329300000000	3.33625200000000	712.14749300000005	48.92670800000000	0.18086800000000	0.00000000000000	0.12276200000000	0.00000000000000	0.00000000000000	0.00000000000000	0.00000000000000	0.00000000000000	0.00000000000000	0.00000000000000	17.75937200000000	0.00000000000000	0.00000000000000	0.00000000000000	0.00000000000000	
9.55496700000000	2.80627300000000	713.04863200000000	48.96994100000000	0.17981500000000	0.00000000000000	0.12268400000000	0.00000000000000	0.00000000000000	0.00000000000000	0.00000000000000	0.00000000000000	0.00000000000000	0.00000000000000	17.84493400000000	0.00000000000000	0.00000000000000	0.00000000000000	0.00000000000000	
